<?xml version="1.0" encoding="utf-8"?>
<!-- Generator: Adobe Illustrator 25.4.1, SVG Export Plug-In . SVG Version: 6.00 Build 0)  -->
<svg version="1.0" id="katman_1" xmlns="http://www.w3.org/2000/svg" xmlns:xlink="http://www.w3.org/1999/xlink" x="0px" y="0px"
	 viewBox="0 0 1700 1200" style="enable-background:new 0 0 1700 1200;" xml:space="preserve">
<style type="text/css">
	.st0{fill:#0D64FF;}
</style>
<path class="st0" d="M894.7,686.7H525.4c-6.9,0-24.3,0.4-24.9-9.5c-0.4-6.6,15.6-27.3,20-33.2c21.3-28.5,44.8-56.3,70-81.5
	l14.7-13.2l100.2-88.7c23.4-20.1,51.1-43.4,66.2-70.7c9.6-17.3,16.1-39.4,15.3-59.4c-3.4-87.9-87.3-122.6-163.2-128.2l-18.6-1.7
	c-68.6-0.8-130.8,16.4-189.3,52.7c-8.3,5.2-29,15.5-26.5,27.1c1.1,5.2,7.4,13.9,10.4,18.6l18.6,29.7c3,4.5,7.2,11.9,12.5,13.7
	c8,2.7,30.4-11.1,38.8-14.7c30.5-13.3,62.5-28.2,96.5-28.6c17.6-0.2,34.3,0.8,50.1,9.9c20.5,11.9,30.9,31.7,17.7,53.1
	c-8.6,13.9-28.8,31.2-41.8,41.6l-68.7,53.9c-62.8,52.3-134,120.5-179.4,188.5c-24.5,36.6-42.3,67.8-57.3,109.5
	c-2.9,8-11.9,32.9-5.3,39.4c3.9,3.8,12.3,3.2,17.4,3.2h532.5c10.6,0,21.2,0,29.4-7.8c8.3-7.9,11-24,14-34.8L894.7,686.7z
	 M1130.3,584.7l-16.9,59.4c-2.7,10.4-5.5,25.3-13.2,33c-7.9,7.9-18.7,9.5-29.3,9.7h-24.1c-3.1,0.1-7.2-0.1-9.8,1.8
	c-4.1,3.1-8,20.5-9.4,26l-15.8,55.7c-1.7,6.1-6,17.6-2.1,23.3c3.6,5.3,12.8,4.5,18.5,4.5h79.8c8.6,0,18.4,0,25.9-5
	c8.8-6,12-16.8,14.6-26.5l12.5-44.5l24.1-85.4c4.8-17,9.1-37,18.4-52c15.9-25.7,45.4-40.5,75.2-40.8c25.2-0.3,55.9,4.9,60.3,35.3
	c1.7,11.5-7.3,38-10.7,50.1l-27.8,98.3l-13,46.4c-1.5,5.3-4.6,14.7-1.3,19.6c3.1,4.6,9.9,4.4,14.8,4.5h83.5c5.2,0,11.9,0.4,16.5-2.2
	c8.9-5,12.6-25.3,15.3-34.9l25.2-89.1c7-24.4,20.8-65.3,20.9-89.1v-16.7c-0.1-10.3-1.6-21.6-4.5-31.5
	c-16.3-55.5-62.3-70.8-114.2-74.4l-16.7-1.7c-14.8-0.3-46.8,4.1-61.2,8.2c-14.7,4.2-23.9,8.4-37.1,15.9l34.7-122.5l20.9-74.2
	l15.6-55.7c1.4-4.9,6.5-19.6,5.2-23.4c-3.1-11.1-30-1.5-37.5,0c-24.2,6.7-51.9,17.3-74.2,28.5c-8.2,4.1-25,12.1-31.3,17.9
	c-6.9,6.4-8.7,16.5-11.1,25.3l-13.5,48.2l-52,183.7l-14.8,52c-1.5,5.2-5,14.5-1.3,19.4c2.8,3.7,10.3,2.9,14.5,2.9H1130.3z
	 M965.1,399c-13,5.2-46,28.3-59.3,37.2c-42.3,28.2-83.4,57.8-122.5,90.5c-14.2,11.9-28,24.2-40.7,37.6
	c-12.9,13.5-15.5,20.4,5.5,20.4h148.4c11.9,0,20.8-0.4,28.4-11.2c4.4-6.3,10.7-31.8,13.2-40.7l24.1-85.4l10.1-35.3
	C974.2,404.2,974.7,399,965.1,399z M1212,987.3c11.7,3.4,19.5,5.1,31.5,6.9l24.1,2.7c25.3,2.5,72.6,4.9,94.6-8.9
	c14-8.8,20.3-25.6,20.5-41.5c0.1-7.4,0.6-15.5-3.7-21.9c-10.2-15-52.9-17.6-70.5-18.9c-6.8-0.4-26-1.9-30.9-5.8
	c-6.7-5.3-0.9-12.6,5-15.2c9.3-4,31.9-3.2,42.6-3.2l55.7,5.6l7.4-31.5l-44.5-5.6l-24.1-1.2l-16.7,1.2c-29,0.3-54.7,1.7-66.4,33.4
	c-2,5.5-3.7,12.7-4,18.6c-1.8,31.9,28,33,51.8,35.6l27.8,3.3c7.1,0.6,26,1.1,29.4,8.1c1.2,2.3,0.9,4.5,0,6.7
	c-4.6,9.5-20.4,9.4-29.4,9.5c-24.9,0-40.1-0.1-64.9-4.8c-5.6-1.1-20.2-5.7-24.7-2.6C1218.4,960.6,1213.7,981.4,1212,987.3z
	 M380.7,963.2H278.7l18-63.1l13.5-50.1h-26c-3.7,0-10.5-0.5-13.5,1.8c-3.8,2.9-8.3,22.4-9.8,27.9L241,950.2
	c-2.6,9.1-8.6,26.2-6.3,35.3c2.8,11.3,12.2,11.1,21.7,11.1h102.1c3.5,0,8.8,0.3,11.7-1.8C374.6,991.4,379.5,969.3,380.7,963.2z
	 M534.7,996.6l7.4-33.4H434.5l9.8-22.2l23.6-1.9h57.5l7.4-33.4h-81.6l5.6-22.3h102.1l7.4-33.4H440.1c-3.7,0-10.5-0.5-13.5,1.8
	c-3.6,2.8-8.5,24.1-10.1,29.7L396.6,952c-2.5,8.9-8.3,24.6-6.1,33.4c2.8,11.3,12.2,11.1,21.7,11.1H534.7z M649.8,850l-28.6,103.9
	l-10.4,42.7h40.8l22.3-87.2c8.2,8.2,17.1,29.6,22.7,40.8c2.6,5.3,6.4,14,11.1,17.4c9.9,7.4,19.9-0.7,27.4-7.1l53.8-49.3l-22.3,85.4
	h40.8L848.3,850c-11.2,0-35-1.3-44.5,2.5c-9.7,3.8-18.1,14.2-26,21.1l-52,48.8c-3.3-11.7-17.5-37.8-23.7-50.1
	c-3.3-6.6-7-16.2-13.6-19.8C681.7,848.7,658.6,850,649.8,850z M818.6,996.6l42.1-1.9l24.7-25.9l14.8-1.9h44.5l14.3,1.9l11.2,26
	l37.6,1.8l-24.8-111.3c-1.5-6.5-5.1-30-9.7-33.4c-3.2-2.3-9.9-1.9-13.8-1.9h-7.4c-24.1,0.3-30.3,14.2-44.2,31.5l-59.4,74.2
	C840,966.5,823.7,984.8,818.6,996.6z M1020.8,996.6h40.8l26-92.8l40.8,64.9l18.9,25.7l27.5,2.2l10.1-1.9l11-31.5l30.9-113.2H1186
	l-26,94.6l-40.9-64.9c-4.7-7.4-13.2-23.4-20.5-27.3c-6-3.2-18.9-2.6-25.8-2.4c-3.2,0.1-7.4-0.1-10.2,1.9
	c-4.6,3.3-9.5,25.2-11.3,31.5l-20.1,72.4C1027.8,968,1021.9,984.4,1020.8,996.6z M944.8,892.7l9.3,40.8h-42.7
	C917.6,922.8,935.2,900.1,944.8,892.7z M790.8,909.4v1.9l-1.9-1.9H790.8z M1429.1,939.9c-37.6,10-24.8,62.8,11.1,56
	c19.8-3.7,29.7-29.3,17.3-45.6C1450.7,941.4,1439.7,938.6,1429.1,939.9z M1453.2,983.6l-9.3-14.8c14.3-17.5-12.5-16.7-22.3-16.7
	v31.5h9.3v-11.1c0,0,0,0.1,3.8,0.1c7.6,11.2,4.7,6.9,7.6,11.2c8.9,0.4,8.9-0.1,8.9-0.1c-20.9,23.1-52.8-6.6-35.9-29.6
	c12.4-17,40.2-10.2,42.9,11.1C1459.3,972.5,1456.6,977.3,1453.2,983.6z M1440.2,959.5c0,0,0.9,3.2-1.2,4.5c-2.4,1.5-8,1-8,1v-5.6
	H1440.2z"/>
</svg>
