<svg width="20" height="20" fill="none" xmlns="http://www.w3.org/2000/svg"><path d="M17.944 4.984c.013.22.013.438.013.657C17.957 12.312 13.833 20 6.294 20c-2.322 0-4.48-.828-6.294-2.266.33.047.647.063.99.063 1.916 0 3.68-.797 5.089-2.156-1.802-.047-3.312-1.5-3.833-3.5.254.046.508.078.774.078.368 0 .736-.063 1.079-.172-1.878-.469-3.287-2.5-3.287-4.953V7.03c.546.375 1.18.61 1.853.64C1.56 6.767.838 5.22.838 3.47c0-.938.203-1.797.558-2.547 2.018 3.062 5.05 5.062 8.452 5.281a6.968 6.968 0 0 1-.102-1.156c0-2.781 1.828-5.047 4.1-5.047 1.18 0 2.245.61 2.994 1.594A7.224 7.224 0 0 0 19.442.375c-.305 1.172-.952 2.156-1.802 2.781A7.042 7.042 0 0 0 20 2.375c-.558 1-1.256 1.89-2.056 2.61Z" fill="#fff"/></svg>